<mxfile host="Electron" modified="2024-04-22T07:52:18.107Z" agent="Mozilla/5.0 (X11; Linux x86_64) AppleWebKit/537.36 (KHTML, like Gecko) draw.io/24.2.5 Chrome/120.0.6099.109 Electron/28.1.0 Safari/537.36" etag="CFKcAe19cnb0MEwlZ1AL" version="24.2.5" type="device" pages="4">
  <diagram name="m0" id="Pfz8JsvBTpIeq38Xa1Xd">
    <mxGraphModel dx="2008" dy="1057" grid="1" gridSize="10" guides="1" tooltips="1" connect="1" arrows="1" fold="1" page="1" pageScale="1" pageWidth="60" pageHeight="60" math="0" shadow="0">
      <root>
        <mxCell id="WXZpVR0zL4GNG9rHUEMz-0" />
        <mxCell id="WXZpVR0zL4GNG9rHUEMz-1" parent="WXZpVR0zL4GNG9rHUEMz-0" />
        <mxCell id="WXZpVR0zL4GNG9rHUEMz-2" value="" style="endArrow=none;html=1;rounded=0;edgeStyle=orthogonalEdgeStyle;fillColor=#d80073;strokeColor=#D80073;strokeWidth=3;" parent="WXZpVR0zL4GNG9rHUEMz-1" edge="1">
          <mxGeometry width="50" height="50" relative="1" as="geometry">
            <mxPoint x="50" y="50" as="sourcePoint" />
            <mxPoint x="10" y="10" as="targetPoint" />
            <Array as="points">
              <mxPoint x="30" y="50" />
              <mxPoint x="30" y="10" />
            </Array>
          </mxGeometry>
        </mxCell>
      </root>
    </mxGraphModel>
  </diagram>
  <diagram name="m1" id="stlAzpkCwH3hcmDchZL8">
    <mxGraphModel dx="2008" dy="1057" grid="1" gridSize="10" guides="1" tooltips="1" connect="1" arrows="1" fold="1" page="1" pageScale="1" pageWidth="60" pageHeight="60" math="0" shadow="0">
      <root>
        <mxCell id="more9FAv4938b5YkPjJd-0" />
        <mxCell id="more9FAv4938b5YkPjJd-1" parent="more9FAv4938b5YkPjJd-0" />
        <mxCell id="more9FAv4938b5YkPjJd-2" value="" style="endArrow=none;html=1;rounded=0;edgeStyle=orthogonalEdgeStyle;fillColor=#d80073;strokeColor=#D80073;strokeWidth=3;" parent="more9FAv4938b5YkPjJd-1" edge="1">
          <mxGeometry width="50" height="50" relative="1" as="geometry">
            <mxPoint x="50" y="10" as="sourcePoint" />
            <mxPoint x="10" y="50" as="targetPoint" />
            <Array as="points">
              <mxPoint x="30" y="10" />
              <mxPoint x="30" y="50" />
            </Array>
          </mxGeometry>
        </mxCell>
      </root>
    </mxGraphModel>
  </diagram>
  <diagram name="dm0" id="3XLVzkfQfDHE3ebzAdC8">
    <mxGraphModel dx="2008" dy="1057" grid="1" gridSize="10" guides="1" tooltips="1" connect="1" arrows="1" fold="1" page="1" pageScale="1" pageWidth="120" pageHeight="60" math="0" shadow="0">
      <root>
        <mxCell id="vKDws1JHi0dLaeFv_vwQ-0" />
        <mxCell id="vKDws1JHi0dLaeFv_vwQ-1" parent="vKDws1JHi0dLaeFv_vwQ-0" />
        <mxCell id="vKDws1JHi0dLaeFv_vwQ-2" value="" style="endArrow=none;html=1;rounded=0;edgeStyle=orthogonalEdgeStyle;fillColor=#d80073;strokeColor=#D80073;strokeWidth=3;" parent="vKDws1JHi0dLaeFv_vwQ-1" edge="1">
          <mxGeometry width="50" height="50" relative="1" as="geometry">
            <mxPoint x="50" y="50" as="sourcePoint" />
            <mxPoint x="10" y="50" as="targetPoint" />
            <Array as="points">
              <mxPoint x="30" y="50" />
              <mxPoint x="30" y="10" />
            </Array>
          </mxGeometry>
        </mxCell>
        <mxCell id="nic5twBk-I7aev4hS8BO-0" value="" style="endArrow=none;html=1;rounded=0;edgeStyle=orthogonalEdgeStyle;fillColor=#d80073;strokeColor=#D80073;strokeWidth=3;" parent="vKDws1JHi0dLaeFv_vwQ-1" edge="1">
          <mxGeometry width="50" height="50" relative="1" as="geometry">
            <mxPoint x="110" y="10" as="sourcePoint" />
            <mxPoint x="70" y="10" as="targetPoint" />
            <Array as="points">
              <mxPoint x="90" y="10" />
              <mxPoint x="90" y="50" />
            </Array>
          </mxGeometry>
        </mxCell>
      </root>
    </mxGraphModel>
  </diagram>
  <diagram name="dm1" id="Obrwm-g0ql8PevJUpVmq">
    <mxGraphModel dx="2008" dy="1057" grid="1" gridSize="10" guides="1" tooltips="1" connect="1" arrows="1" fold="1" page="1" pageScale="1" pageWidth="120" pageHeight="60" math="0" shadow="0">
      <root>
        <mxCell id="dEH7iSopxsQTSnt5TMeI-0" />
        <mxCell id="dEH7iSopxsQTSnt5TMeI-1" parent="dEH7iSopxsQTSnt5TMeI-0" />
        <mxCell id="6Xy3UBjJL4OkeNRxW-V8-0" value="" style="endArrow=none;html=1;rounded=0;edgeStyle=orthogonalEdgeStyle;fillColor=#d80073;strokeColor=#D80073;strokeWidth=3;" parent="dEH7iSopxsQTSnt5TMeI-1" edge="1">
          <mxGeometry width="50" height="50" relative="1" as="geometry">
            <mxPoint x="50" y="50" as="sourcePoint" />
            <mxPoint x="10" y="10" as="targetPoint" />
            <Array as="points">
              <mxPoint x="30" y="50" />
              <mxPoint x="30" y="10" />
            </Array>
          </mxGeometry>
        </mxCell>
        <mxCell id="6Xy3UBjJL4OkeNRxW-V8-1" value="" style="endArrow=none;html=1;rounded=0;edgeStyle=orthogonalEdgeStyle;fillColor=#d80073;strokeColor=#D80073;strokeWidth=3;" parent="dEH7iSopxsQTSnt5TMeI-1" edge="1">
          <mxGeometry width="50" height="50" relative="1" as="geometry">
            <mxPoint x="110" y="10" as="sourcePoint" />
            <mxPoint x="70" y="50" as="targetPoint" />
            <Array as="points">
              <mxPoint x="90" y="10" />
              <mxPoint x="90" y="50" />
            </Array>
          </mxGeometry>
        </mxCell>
      </root>
    </mxGraphModel>
  </diagram>
</mxfile>
